HIERARCHY
ROOT Hips
{
	OFFSET 0.00000 0.00000 0.00000
	CHANNELS 6 Xposition Yposition Zposition Zrotation Yrotation Xrotation 
	JOINT LHipJoint
	{
		OFFSET 0 0 0
		CHANNELS 3 Zrotation Yrotation Xrotation
		JOINT LeftUpLeg
		{
			OFFSET 1.56857 -1.73443 1.15205
			CHANNELS 3 Zrotation Yrotation Xrotation
			JOINT LeftLeg
			{
				OFFSET 2.39362 -6.57643 0.00000
				CHANNELS 3 Zrotation Yrotation Xrotation
				JOINT LeftFoot
				{
					OFFSET 2.50952 -6.89485 0.00000
					CHANNELS 3 Zrotation Yrotation Xrotation
					JOINT LeftToeBase
					{
						OFFSET 0.17171 -0.47178 1.88682
						CHANNELS 3 Zrotation Yrotation Xrotation
						End Site
						{
							OFFSET 0.00000 -0.00000 0.98146
						}
					}
				}
			}
		}
	}
	JOINT RHipJoint
	{
		OFFSET 0 0 0
		CHANNELS 3 Zrotation Yrotation Xrotation
		JOINT RightUpLeg
		{
			OFFSET -1.28153 -1.73443 1.15205
			CHANNELS 3 Zrotation Yrotation Xrotation
			JOINT RightLeg
			{
				OFFSET -2.26861 -6.23296 0.00000
				CHANNELS 3 Zrotation Yrotation Xrotation
				JOINT RightFoot
				{
					OFFSET -2.54143 -6.98254 0.00000
					CHANNELS 3 Zrotation Yrotation Xrotation
					JOINT RightToeBase
					{
						OFFSET -0.23309 -0.64041 1.93119
						CHANNELS 3 Zrotation Yrotation Xrotation
						End Site
						{
							OFFSET -0.00000 -0.00000 1.02013
						}
					}
				}
			}
		}
	}
	JOINT LowerBack
	{
		OFFSET 0 0 0
		CHANNELS 3 Zrotation Yrotation Xrotation
		JOINT Spine
		{
			OFFSET -0.07096 2.10460 -0.27878
			CHANNELS 3 Zrotation Yrotation Xrotation
			JOINT Spine1
			{
				OFFSET -0.00826 2.13662 -0.08279
				CHANNELS 3 Zrotation Yrotation Xrotation
				JOINT Neck
				{
					OFFSET 0 0 0
					CHANNELS 3 Zrotation Yrotation Xrotation
					JOINT Neck1
					{
						OFFSET 0.03239 1.77799 0.24435
						CHANNELS 3 Zrotation Yrotation Xrotation
						JOINT Head
						{
							OFFSET 0.01026 1.74194 -0.49664
							CHANNELS 3 Zrotation Yrotation Xrotation
							End Site
							{
								OFFSET 0.00170 1.83057 -0.19653
							}
						}
					}
				}
				JOINT LeftShoulder
				{
					OFFSET 0 0 0
					CHANNELS 3 Zrotation Yrotation Xrotation
					JOINT LeftArm
					{
						OFFSET 3.19178 1.35907 -0.31412
						CHANNELS 3 Zrotation Yrotation Xrotation
						JOINT LeftForeArm
						{
							OFFSET 4.85247 -0.00000 -0.00000
							CHANNELS 3 Zrotation Yrotation Xrotation
							JOINT LeftHand
							{
								OFFSET 3.55584 -0.00000 0.00000
								CHANNELS 3 Zrotation Yrotation Xrotation
								JOINT LeftFingerBase
								{
									OFFSET 0 0 0
									CHANNELS 3 Zrotation Yrotation Xrotation
									JOINT LeftHandIndex1
									{
										OFFSET 0.69320 -0.00000 0.00000
										CHANNELS 3 Zrotation Yrotation Xrotation
										End Site
										{
											OFFSET 0.55888 -0.00000 0.00000
										}
									}
								}
								JOINT LThumb
								{
									OFFSET 0 0 0
									CHANNELS 3 Zrotation Yrotation Xrotation
									End Site
									{
										OFFSET 0.56741 -0.00000 0.56741
									}
								}
							}
						}
					}
				}
				JOINT RightShoulder
				{
					OFFSET 0 0 0
					CHANNELS 3 Zrotation Yrotation Xrotation
					JOINT RightArm
					{
						OFFSET -3.28999 1.24191 -0.26899
						CHANNELS 3 Zrotation Yrotation Xrotation
						JOINT RightForeArm
						{
							OFFSET -4.64462 -0.00000 0.00000
							CHANNELS 3 Zrotation Yrotation Xrotation
							JOINT RightHand
							{
								OFFSET -3.40703 -0.00000 0.00000
								CHANNELS 3 Zrotation Yrotation Xrotation
								JOINT RightFingerBase
								{
									OFFSET 0 0 0
									CHANNELS 3 Zrotation Yrotation Xrotation
									JOINT RightHandIndex1
									{
										OFFSET -0.61958 -0.00000 0.00000
										CHANNELS 3 Zrotation Yrotation Xrotation
										End Site
										{
											OFFSET -0.49952 -0.00000 0.00000
										}
									}
								}
								JOINT RThumb
								{
									OFFSET 0 0 0
									CHANNELS 3 Zrotation Yrotation Xrotation
									End Site
									{
										OFFSET -0.50715 -0.00000 0.50715
									}
								}
							}
						}
					}
				}
			}
		}
	}
}
MOTION
Frames: 9
Frame Time: .0083333
11.9399 17.2500 -0.4960 414.8010 80.9499 414.3360 0.0000 0.0000 0.0000 -27.3219 -4.3926 0.2641 0.5861 4.9019 13.6290 0.6009 1.6920 -15.3522 0.0003 -0.1172 -0.3221 0.0000 0.0000 0.0000 10.1480 0.4327 -14.5960 -8.7388 -16.6366 55.1822 -0.3871 5.7411 -11.1781 -0.0444 -1.3596 3.7387 -11.8058 2.3795 12.0040 -4.0166 1.9584 4.2000 2.1050 1.0781 -2.4880 4.1263 1.8156 -23.9137 0.5230 1.0153 24.7772 -0.3004 0.9893 12.1764 -0.0000 0.0000 0.0000 -80.8132 -1.7798 37.9162 19.8293 -30.4362 -5.4446 -0.0000 0.0000 -10.9046 27.0099 -20.8118 -10.2656 -7.1250 0.0000 -0.0000 -0.9941 6.8780 0.8681 -0.0000 0.0000 0.0000 86.4594 -1.7599 31.3529 -17.6355 27.6880 -4.3786 0.0000 -0.0000 -3.2014 -20.4315 -25.3285 9.0550 7.1250 -0.0000 -0.0000 10.1277 -56.4899 -2.8736
12.2165 17.3043 -0.4924 416.2050 80.7058 415.4980 0.0000 0.0000 0.0000 -27.9468 -3.8285 2.3191 0.4661 4.3789 12.1453 0.6147 1.7079 -15.5251 0.0001 -0.0560 -0.1539 0.0000 0.0000 0.0000 9.8819 0.9041 -15.8834 -8.3560 -16.3749 53.8349 -0.4389 5.6564 -11.8541 -0.0186 -0.8807 2.4206 -12.2648 2.3152 12.1240 -4.0013 1.7951 4.1301 2.3906 1.0047 -2.6160 4.4661 1.9997 -23.9654 0.3364 1.2039 25.0507 -0.3928 1.0868 12.3028 0.0000 0.0000 0.0000 -80.4241 -2.8818 40.0344 21.4295 -32.3263 -6.2780 -0.0000 0.0000 -12.2745 26.6683 -21.1644 -10.2781 -7.1250 0.0000 -0.0000 -1.2524 6.5598 1.1014 0.0000 0.0000 0.0000 85.6699 -2.6762 30.6200 -16.7255 26.4945 -3.9641 0.0000 -0.0000 -4.2325 -19.5942 -25.8765 8.8307 7.1250 -0.0000 -0.0000 11.2757 -56.8661 -3.3078
12.4901 17.3462 -0.4843 417.7160 80.5306 416.8160 0.0000 0.0000 0.0000 -28.4485 -3.3195 4.2848 0.3609 3.8590 10.6803 0.6146 1.7526 -15.5460 0.0003 0.1097 0.3013 0.0000 0.0000 0.0000 9.6465 1.4455 -17.0625 -7.8382 -15.9990 51.9780 -0.4473 4.8200 -11.9074 -0.0604 -1.5862 4.3633 -12.7235 2.2551 12.2155 -3.9537 1.6436 4.0817 2.7105 0.9351 -2.7053 4.6805 2.1547 -24.2331 0.2876 1.3436 25.4223 -0.4184 1.1711 12.5092 -0.0000 0.0000 0.0000 -79.9937 -4.0679 42.0595 23.1299 -34.2306 -7.2112 -0.0000 0.0000 -13.4534 26.2204 -21.3458 -10.1634 -7.1250 0.0000 -0.0000 -1.5565 6.4477 1.3724 -0.0000 0.0000 0.0000 84.7720 -3.6772 30.2279 -16.1117 25.6718 -3.6942 0.0000 -0.0000 -4.9913 -18.6226 -26.7251 8.6171 7.1250 -0.0000 -0.0000 12.7443 -57.5054 -3.9454
12.7555 17.3737 -0.4760 420.0400 80.3730 419.0720 0.0000 0.0000 0.0000 -28.9218 -2.7704 5.8905 0.2817 3.4133 9.4317 0.6263 1.5085 -15.5702 0.0000 -0.0045 -0.0125 0.0000 0.0000 0.0000 9.2758 1.8758 -18.3528 -7.3092 -15.5868 50.0343 -0.4688 4.0669 -12.1848 -0.0765 -1.7842 4.9097 -13.2706 2.1199 12.2253 -3.8757 1.4016 4.0682 3.1282 0.8152 -2.6976 4.5879 2.2431 -24.3991 0.5158 1.4265 25.5699 -0.2984 1.2334 12.6010 -0.0000 0.0000 0.0000 -79.6119 -5.4153 43.7172 24.9508 -36.1536 -8.2608 -0.0000 0.0000 -14.1968 25.7416 -21.5591 -10.0472 -7.1250 0.0000 -0.0000 -1.8830 6.3067 1.6657 -0.0000 0.0000 0.0000 83.6777 -4.8395 30.1783 -15.8652 25.3375 -3.5881 0.0000 -0.0000 -5.4844 -17.7756 -27.1923 8.3348 7.1250 -0.0000 -0.0000 13.9001 -57.7833 -4.4058
13.0222 17.3843 -0.4711 423.2930 80.1278 422.3020 0.0000 0.0000 0.0000 -29.5240 -2.1131 7.2808 0.2218 3.0316 8.3668 0.6472 0.9947 -15.5898 0.0008 -0.1830 -0.5028 0.0000 0.0000 0.0000 8.6535 2.1987 -19.7184 -6.7884 -15.1511 48.0693 -0.5241 3.6605 -12.9170 -0.0313 -1.1422 3.1402 -13.8745 1.9167 12.1814 -3.8454 1.0799 4.0902 3.5400 0.6517 -2.6025 4.5418 2.3610 -24.5747 0.5817 1.5789 25.6379 -0.2362 1.3053 12.6653 0.0000 0.0000 0.0000 -79.0887 -6.8564 45.3489 26.8691 -38.0540 -9.4183 -0.0000 0.0000 -14.8679 25.7041 -21.9826 -10.2141 -7.1250 0.0000 -0.0000 -1.9561 5.8591 1.7473 0.0000 0.0000 0.0000 82.4486 -6.1197 30.4896 -15.8915 25.3734 -3.5994 0.0000 -0.0000 -5.7850 -17.2912 -27.0955 8.0700 7.1250 -0.0000 -0.0000 14.3544 -57.5833 -4.4842
13.2895 17.3820 -0.4657 426.3750 79.8014 425.3870 0.0000 0.0000 0.0000 -30.1286 -1.4710 8.5920 0.1720 2.6720 7.3667 0.6671 0.4487 -15.6016 0.0000 0.0023 0.0064 0.0000 0.0000 0.0000 7.9549 2.5529 -21.0076 -6.2501 -14.6664 45.9773 -0.5831 3.2126 -13.6867 -0.0068 -0.5307 1.4582 -14.4977 1.7326 12.0924 -3.8633 0.7911 4.1102 3.9050 0.5036 -2.4819 4.6879 2.5373 -24.8072 0.4660 1.7889 25.6856 -0.2647 1.3948 12.7381 0.0000 -0.0000 0.0000 -78.3272 -8.3995 47.0801 28.7837 -39.8278 -10.6219 -0.0000 0.0000 -15.3237 26.0857 -22.3106 -10.5289 -7.1250 0.0000 -0.0000 -1.7568 5.4346 1.5833 0.0000 -0.0000 0.0000 81.2200 -7.4119 31.1010 -16.0514 25.5903 -3.6682 0.0000 -0.0000 -5.9327 -16.8711 -26.9070 7.8147 7.1250 -0.0000 -0.0000 14.6860 -57.3087 -4.4929
13.5553 17.3691 -0.4611 428.3270 79.4513 427.3860 0.0000 0.0000 0.0000 -30.6146 -0.8042 9.8525 0.1280 2.3058 6.3515 0.6786 0.0899 -15.6013 0.0003 0.1079 0.2965 0.0000 0.0000 0.0000 7.2940 2.9865 -22.2435 -5.7090 -14.1403 43.8022 -0.6257 2.8048 -14.2495 -0.0031 -0.3604 0.9901 -15.0560 1.5746 11.9202 -3.8843 0.5547 4.0976 4.2226 0.3804 -2.3548 4.8039 2.6664 -24.8270 0.4703 1.9206 25.5790 -0.2592 1.4618 12.7042 0.0000 0.0000 0.0000 -77.4867 -9.8177 48.5111 30.8719 -41.6291 -11.9846 -0.0000 0.0000 -15.4662 26.4851 -22.4627 -10.7787 -7.1250 0.0000 -0.0000 -1.5266 5.1936 1.3827 0.0000 0.0000 0.0000 79.9367 -8.8603 32.0376 -16.3706 26.0206 -3.8071 0.0000 -0.0000 -5.8618 -16.5564 -26.5811 7.5773 7.1250 -0.0000 -0.0000 14.8282 -56.9235 -4.3988
13.8245 17.3450 -0.4637 429.4020 79.0808 428.4620 0.0000 0.0000 0.0000 -31.0785 -0.0506 11.1717 0.0904 1.9388 5.3366 0.6909 -0.1128 -15.6715 0.0001 0.0561 0.1542 0.0000 0.0000 0.0000 6.6085 3.3251 -23.4777 -5.2015 -13.6072 41.6861 -0.6532 2.6227 -14.5990 -0.0077 -0.5671 1.5584 -15.4818 1.4410 11.7378 -3.8666 0.3719 4.1132 4.5005 0.2790 -2.1988 4.8306 2.8239 -24.7133 0.3780 2.1667 25.4217 -0.2576 1.5556 12.6257 -0.0000 -0.0000 0.0000 -76.8012 -11.1332 49.6231 33.2407 -43.5142 -13.5875 -0.0000 0.0000 -15.9996 26.6345 -22.6597 -10.9355 -7.1250 0.0000 -0.0000 -1.4586 4.9521 1.3277 -0.0000 -0.0000 0.0000 78.4051 -10.4555 33.3712 -16.8966 26.7213 -4.0407 0.0000 -0.0000 -5.7803 -16.6850 -26.1853 7.5344 7.1250 -0.0000 -0.0000 14.4750 -56.5629 -4.1639
14.0983 17.3111 -0.4713 431.0190 78.7882 430.0580 0.0000 0.0000 0.0000 -31.4828 0.7210 12.4854 0.0612 1.5967 4.3925 0.7146 -0.5845 -15.7857 0.0005 0.1422 0.3908 0.0000 0.0000 0.0000 5.9010 3.3454 -24.5789 -4.6368 -12.9627 39.2292 -0.6408 2.3051 -14.5103 -0.0159 -0.8131 2.2346 -15.7588 1.2735 11.6007 -3.8472 0.1527 4.1269 4.7026 0.1608 -2.0619 4.9245 2.8850 -24.7693 0.1809 2.2684 25.3620 -0.3307 1.5791 12.6188 -0.0000 -0.0000 0.0000 -76.1433 -12.5661 50.6147 35.5665 -45.2124 -15.2140 -0.0000 0.0000 -16.5650 26.8496 -23.1865 -11.2721 -7.1250 0.0000 -0.0000 -1.3937 4.3417 1.2845 -0.0000 -0.0000 0.0000 76.8206 -12.1666 34.7498 -17.6198 27.6676 -4.3712 0.0000 -0.0000 -5.8049 -16.9744 -25.9141 7.5983 7.1250 -0.0000 -0.0000 14.0289 -56.3563 -3.9613
